<?xml version="1.0" encoding="UTF-8"?>
<svg width="18px" height="19px" viewBox="0 0 18 19" version="1.1" xmlns="http://www.w3.org/2000/svg" xmlns:xlink="http://www.w3.org/1999/xlink">
    <!-- Generator: Sketch 50.2 (55047) - http://www.bohemiancoding.com/sketch -->
    <title>Slice Copy 2</title>
    <desc>Created with Sketch.</desc>
    <defs></defs>
    <g id="Page-1" stroke="none" stroke-width="1" fill="none" fill-rule="evenodd">
        <g id="word_02-copy-2" transform="translate(2.000000, 1.000000)" fill="#FFFFFF" fill-rule="nonzero">
            <path d="M12.7423168,16.9850586 L1.25768322,16.9850586 C0.5643026,16.9850586 0,16.4189453 0,15.7233398 L0,1.27666016 C0,0.581054687 0.5643026,0.0149414062 1.25768322,0.0149414062 L10.2137116,0.0149414062 L14,3.98603516 L14,15.7233398 C14,16.4189453 13.4356974,16.9850586 12.7423168,16.9850586 Z M1.42384741,1.01494141 C1.18892423,1.01494141 1,1.2064379 1,1.44250686 L1,15.5890268 C1,15.8234449 1.19056705,16.0149414 1.42384741,16.0149414 L12.5761526,16.0149414 C12.8110758,16.0149414 13,15.8234449 13,15.5890268 L13,4.24781188 L9.71436119,1.01494141 L1.42384741,1.01494141 Z" id="Shape"></path>
            <path d="M13.6282227,4.57041016 L10.9138672,4.57041016 C10.2182617,4.57041016 9.65214844,4.00429688 9.65214844,3.30869141 L9.65214844,0.431640625 C9.65214844,0.262304688 9.75507812,0.107910156 9.91279297,0.0448242188 C10.0705078,-0.0182617187 10.2514648,0.019921875 10.3693359,0.142773438 L13.9287109,3.86484375 C14.0432617,3.98603516 14.0764648,4.16367188 14.0100586,4.31640625 C13.9453125,4.47080078 13.7958984,4.57041016 13.6282227,4.57041016 Z M10.4838867,1.46923828 L10.4838867,3.30869141 C10.4838867,3.54443359 10.6764648,3.73701172 10.912207,3.73701172 L12.6520508,3.73701172 L10.4838867,1.46923828 Z M9.80252072,6.38982771 L10.9520508,6.38982771 L9.15954034,11.7023277 L8.07755024,11.7023277 C7.71688687,10.1049694 7.46969063,9.0169339 7.33461072,8.43822113 C7.33461072,8.41601632 7.32380432,8.38132131 7.30084074,8.3341361 C7.25491357,8.0107786 7.23330078,7.77901593 7.23330078,7.63884809 L7.1995308,7.63884809 C7.1995308,7.6860333 7.18872441,7.75542332 7.16576082,7.84701815 C7.14279724,8.10237343 7.10902726,8.29805329 7.06445089,8.43683333 C6.90640739,9.0155461 6.63624757,10.1035816 6.25397141,11.7009399 L5.17198131,11.7009399 L3.51455078,6.38982771 L4.66408084,6.38982771 C5.11524775,8.14955864 5.41917755,9.28477939 5.57722105,9.79271434 C5.62179742,9.97867959 5.66637379,10.1868497 5.71230096,10.4172245 C5.75687733,10.1854619 5.80145371,9.97729179 5.84738088,9.79271434 C6.02703716,9.09881413 6.28639059,7.96498119 6.62544117,6.38982771 L7.77362043,6.38982771 C8.22478734,8.38132131 8.47198358,9.51515425 8.51655995,9.79271434 C8.56113632,9.97867959 8.6057127,10.1868497 8.65163987,10.4172245 C8.69621624,10.1854619 8.74079261,9.97729179 8.78671978,9.79271434 C8.99069045,9.09742633 9.32839023,7.96359339 9.80252072,6.38982771 Z" id="Shape"></path>
        </g>
    </g>
</svg>