<?xml version="1.0" encoding="utf-8"?>
<!-- Generator: Adobe Illustrator 21.1.0, SVG Export Plug-In . SVG Version: 6.00 Build 0)  -->
<svg version="1.1" id="图层_1" xmlns="http://www.w3.org/2000/svg" xmlns:xlink="http://www.w3.org/1999/xlink" x="0px" y="0px"
	 viewBox="0 0 149.2 104.8" style="enable-background:new 0 0 149.2 104.8;" xml:space="preserve">
<style type="text/css">
	.st0{fill:#191919;}
	.st1{fill:#191919;stroke:#191919;stroke-width:0.3;stroke-miterlimit:10;}
	.st2{fill:#6F6F6F;}
	.st3{fill:#6F6F6F;stroke:#6F6F6F;stroke-width:0.3;stroke-miterlimit:10;}
	.st4{fill:#DDB769;stroke:#DDB769;stroke-width:0.3;stroke-miterlimit:10;}
	.st5{fill:none;stroke:#C8C8C8;stroke-width:1.6;stroke-linecap:round;stroke-linejoin:round;stroke-miterlimit:10;}
	.st6{fill:none;stroke:#191919;stroke-width:1.6;stroke-linecap:round;stroke-linejoin:round;stroke-miterlimit:10;}
	.st7{fill:#A9A9A9;stroke:#A9A9A9;stroke-width:0.3;stroke-miterlimit:10;}
	.st8{fill:#A9A9A9;}
	.st9{fill:#A9A9A9;stroke:#A9A9A9;stroke-width:0.2;stroke-miterlimit:10;}
	.st10{fill:#191919;stroke:#191919;stroke-width:0.2;stroke-miterlimit:10;}
</style>
<path class="st0" d="M13.8,13.8c-0.2,0.2-0.6,0.2-0.9,0L10.1,11c-2.7,2.2-6.6,1.8-8.8-0.9s-1.8-6.6,0.9-8.8S8.8-0.5,11,2.2
	c1.9,2.3,1.9,5.6,0,7.9l2.8,2.8C14.1,13.2,14.1,13.6,13.8,13.8z M6.2,1.3c-2.8,0-5,2.2-5,5s2.2,5,5,5s5-2.2,5-5l0,0
	C11.2,3.5,9,1.3,6.2,1.3z"/>
<path class="st0" d="M81,5.2h-2.7c-0.3,0-0.6-0.3-0.6-0.6C77.7,4.2,78,4,78.3,4h1.1c-1-1.4-2.5-2.2-4.3-2.2c-2.9,0-5.3,2.4-5.3,5.3
	s2.4,5.3,5.3,5.3s5.3-2.4,5.3-5.3c0-0.3,0.3-0.6,0.6-0.6c0.3,0,0.6,0.3,0.6,0.6c0,3.6-2.9,6.5-6.5,6.5s-6.5-2.9-6.5-6.5
	s2.9-6.5,6.5-6.5c2.2,0,4.1,1.1,5.3,2.7V2.1c0-0.3,0.3-0.6,0.6-0.6c0.3,0,0.6,0.3,0.6,0.6v2.4C81.6,4.9,81.3,5.2,81,5.2z"/>
<path class="st0" d="M108,0.5h5.2c0.3,0,0.5,0.2,0.5,0.5v5.2c0,0.3-0.2,0.5-0.5,0.5H108c-0.3,0-0.5-0.2-0.5-0.5V1
	C107.5,0.7,107.7,0.5,108,0.5z M112.7,1.5h-4.2v4.2h4.2V1.5L112.7,1.5z M119.5,1.5h-4.2v4.2h4.2V1.5z M114.8,0.5h5.2
	c0.3,0,0.5,0.2,0.5,0.5v5.2c0,0.3-0.2,0.5-0.5,0.5h-5.2c-0.3,0-0.5-0.2-0.5-0.5V1C114.3,0.7,114.5,0.5,114.8,0.5z M108.5,12.5h4.2
	V8.3h-4.2V12.5z M113.2,13.5H108c-0.3,0-0.5-0.2-0.5-0.5V7.8c0-0.3,0.2-0.5,0.5-0.5h5.2c0.3,0,0.5,0.2,0.5,0.5V13
	C113.7,13.3,113.5,13.5,113.2,13.5z M120,13.5h-5.2c-0.3,0-0.5-0.2-0.5-0.5V7.8c0-0.3,0.2-0.5,0.5-0.5h5.2c0.3,0,0.5,0.2,0.5,0.5V13
	C120.5,13.3,120.3,13.5,120,13.5z M115.3,12.5h4.2V8.3h-4.2V12.5z"/>
<path class="st1" d="M37.7,0.9V13l4-3.6l4,3.6V0.9H37.7z M37.7,0h7.9c0.4,0,0.8,0.4,0.8,0.9l0,0V13c0,0.5-0.4,0.9-0.8,0.9
	c-0.2,0-0.3-0.1-0.5-0.2l-3.5-3.2l-3.5,3.2c-0.3,0.3-0.8,0.2-1.1-0.2c-0.1-0.2-0.2-0.4-0.2-0.6v-12C36.9,0.4,37.3,0,37.7,0z"/>
<path d="M134.8,2.7h11.3c0.5,0,0.9-0.3,0.9-0.6s-0.4-0.6-0.9-0.6l0,0h-11.3c-0.5,0-0.9,0.3-0.9,0.6S134.3,2.7,134.8,2.7L134.8,2.7z
	 M134.8,7.6H146c0.5,0,0.9-0.3,0.9-0.6s-0.4-0.6-0.9-0.6l0,0h-11.2c-0.5,0-0.9,0.3-0.9,0.6S134.3,7.6,134.8,7.6L134.8,7.6L134.8,7.6
	z M146,11.3h-11.2c-0.5,0-0.9,0.3-0.9,0.6s0.4,0.6,0.9,0.6l0,0h11.3c0.5,0,0.9-0.3,0.9-0.6S146.5,11.3,146,11.3L146,11.3z"/>
<path class="st2" d="M13.8,36.8c-0.2,0.2-0.6,0.2-0.9,0L10.1,34c-2.7,2.2-6.6,1.8-8.8-0.9s-1.8-6.6,0.9-8.8s6.6-1.8,8.8,0.9
	c1.9,2.3,1.9,5.6,0,7.9l2.8,2.8C14.1,36.2,14.1,36.6,13.8,36.8z M6.2,24.3c-2.8,0-5,2.2-5,5s2.2,5,5,5s5-2.2,5-5l0,0
	C11.2,26.5,9,24.3,6.2,24.3z"/>
<path class="st2" d="M81,28.2h-2.7c-0.3,0-0.6-0.3-0.6-0.6c0-0.3,0.3-0.6,0.6-0.6h1.1c-1-1.4-2.5-2.2-4.3-2.2
	c-2.9,0-5.3,2.4-5.3,5.3s2.4,5.3,5.3,5.3s5.3-2.4,5.3-5.3c0-0.3,0.3-0.6,0.6-0.6c0.3,0,0.6,0.3,0.6,0.6c0,3.6-2.9,6.5-6.5,6.5
	s-6.5-2.9-6.5-6.5s2.9-6.5,6.5-6.5c2.2,0,4.1,1.1,5.3,2.7v-1.1c0-0.3,0.3-0.6,0.6-0.6c0.3,0,0.6,0.3,0.6,0.6v2.4
	C81.6,27.9,81.3,28.2,81,28.2z"/>
<path class="st2" d="M108,23.5h5.2c0.3,0,0.5,0.2,0.5,0.5v5.2c0,0.3-0.2,0.5-0.5,0.5H108c-0.3,0-0.5-0.2-0.5-0.5V24
	C107.5,23.7,107.7,23.5,108,23.5z M112.7,24.5h-4.2v4.2h4.2V24.5L112.7,24.5z M119.5,24.5h-4.2v4.2h4.2V24.5z M114.8,23.5h5.2
	c0.3,0,0.5,0.2,0.5,0.5v5.2c0,0.3-0.2,0.5-0.5,0.5h-5.2c-0.3,0-0.5-0.2-0.5-0.5V24C114.3,23.7,114.5,23.5,114.8,23.5z M108.5,35.5
	h4.2v-4.2h-4.2V35.5z M113.2,36.5H108c-0.3,0-0.5-0.2-0.5-0.5v-5.2c0-0.3,0.2-0.5,0.5-0.5h5.2c0.3,0,0.5,0.2,0.5,0.5V36
	C113.7,36.3,113.5,36.5,113.2,36.5z M120,36.5h-5.2c-0.3,0-0.5-0.2-0.5-0.5v-5.2c0-0.3,0.2-0.5,0.5-0.5h5.2c0.3,0,0.5,0.2,0.5,0.5
	V36C120.5,36.3,120.3,36.5,120,36.5z M115.3,35.5h4.2v-4.2h-4.2V35.5z"/>
<path class="st3" d="M37.7,23.9V36l4-3.6l4,3.6V23.9H37.7z M37.7,23h7.9c0.4,0,0.8,0.4,0.8,0.9l0,0V36c0,0.5-0.4,0.9-0.8,0.9
	c-0.2,0-0.3-0.1-0.5-0.2l-3.5-3.2l-3.5,3.2c-0.3,0.3-0.8,0.2-1.1-0.2c-0.1-0.2-0.2-0.4-0.2-0.6v-12C36.9,23.4,37.3,23,37.7,23z"/>
<path class="st2" d="M134.8,25.7h11.3c0.5,0,0.9-0.3,0.9-0.6c0-0.3-0.4-0.6-0.9-0.6l0,0h-11.3c-0.5,0-0.9,0.3-0.9,0.6
	S134.3,25.7,134.8,25.7L134.8,25.7z M134.8,30.6H146c0.5,0,0.9-0.3,0.9-0.6s-0.4-0.6-0.9-0.6l0,0h-11.2c-0.5,0-0.9,0.3-0.9,0.6
	C133.9,30.3,134.3,30.6,134.8,30.6L134.8,30.6L134.8,30.6z M146,34.3h-11.2c-0.5,0-0.9,0.3-0.9,0.6s0.4,0.6,0.9,0.6l0,0h11.3
	c0.5,0,0.9-0.3,0.9-0.6S146.5,34.3,146,34.3L146,34.3z"/>
<path class="st4" d="M2.9,46h7.9c0.4,0,0.8,0.4,0.8,0.9l0,0V59c0,0.5-0.4,0.9-0.8,0.9c-0.2,0-0.3-0.1-0.5-0.2l-3.5-3.2l-3.5,3.2
	C3,60,2.5,59.9,2.2,59.5C2.1,59.3,2,59.1,2,58.9v-12C2.1,46.4,2.5,46,2.9,46z"/>
<line class="st5" x1="12.4" y1="69.5" x2="4.8" y2="77.1"/>
<line class="st5" x1="4.8" y1="69.5" x2="12.4" y2="77.1"/>
<line class="st6" x1="43.8" y1="69.5" x2="36.2" y2="77.1"/>
<line class="st6" x1="36.2" y1="69.5" x2="43.8" y2="77.1"/>
<path class="st7" d="M73.5,67.6h4.4c0.4,0,0.8,0.3,0.8,0.8v4.4c0,0.2-0.1,0.4-0.2,0.5l-5.9,5.9c-0.3,0.3-0.8,0.3-1.1,0L67,74.9
	c-0.3-0.3-0.3-0.8,0-1.1l0,0l5.9-5.9C73.1,67.7,73.3,67.6,73.5,67.6L73.5,67.6z M73.5,68.4l-5.9,5.9l4.4,4.4l5.9-5.9v-4.4H73.5z
	 M75,72.8c-0.9,0-1.6-0.7-1.6-1.6s0.7-1.6,1.6-1.6s1.6,0.7,1.6,1.6S75.9,72.8,75,72.8z M75,72c0.4,0,0.8-0.3,0.8-0.8
	s-0.3-0.8-0.8-0.8l0,0c-0.4,0-0.8,0.3-0.8,0.8C74.2,71.6,74.6,72,75,72z"/>
<path class="st2" d="M77.7,89L71,94.9l6,6.7l0,0c0.2,0.2,0.3,0.5,0.3,0.9c0,0.7-0.6,1.2-1.3,1.1c-0.3,0-0.6-0.2-0.8-0.4l0,0
	l-6.8-7.5l0,0c-0.2-0.2-0.3-0.5-0.3-0.9l0,0l0,0c0-0.3,0.2-0.6,0.4-0.8l0,0l7.6-6.8l0,0c0.2-0.2,0.5-0.3,0.9-0.3
	c0.7,0,1.2,0.6,1.1,1.3C78.1,88.5,77.9,88.8,77.7,89z"/>
<path class="st0" d="M10.3,88.8l-6.7,5.9l6,6.7l0,0c0.2,0.2,0.3,0.5,0.3,0.9c0,0.7-0.6,1.2-1.3,1.1c-0.3,0-0.6-0.2-0.8-0.4l0,0
	l-6.7-7.5l0,0c-0.2-0.2-0.3-0.5-0.3-0.9l0,0l0,0c0-0.3,0.2-0.6,0.4-0.8l0,0L8.8,87l0,0c0.2-0.2,0.5-0.3,0.9-0.3
	c0.7,0,1.2,0.6,1.1,1.3C10.7,88.3,10.6,88.6,10.3,88.8z"/>
<path class="st2" d="M109.4,88c0-0.7,0.5-1.2,1.1-1.3c0.3,0,0.6,0.1,0.9,0.3l0,0l7.6,6.8l0,0c0.2,0.2,0.4,0.5,0.4,0.8l0,0l0,0
	c0,0.3-0.1,0.7-0.3,0.9l0,0l-6.8,7.6l0,0c-0.2,0.2-0.5,0.4-0.8,0.4c-0.7,0-1.2-0.5-1.3-1.1c0-0.3,0.1-0.6,0.3-0.9l0,0l6-6.7
	l-6.7-5.9C109.6,88.6,109.4,88.3,109.4,88z"/>
<path class="st0" d="M37.2,88c0-0.7,0.5-1.2,1.1-1.3c0.3,0,0.6,0.1,0.9,0.3l0,0l7.6,6.8l0,0c0.2,0.2,0.4,0.5,0.4,0.8l0,0l0,0
	c0,0.3-0.1,0.7-0.3,0.9l0,0l-6.8,7.6l0,0c-0.2,0.2-0.5,0.4-0.8,0.4c-0.7,0-1.2-0.5-1.3-1.1c0-0.3,0.1-0.6,0.3-0.9l0,0l6-6.7l-6.6-6
	C37.4,88.6,37.3,88.3,37.2,88z"/>
<path class="st8" d="M42.2,50.9c0.1,0.3,0,0.6-0.2,0.7c-0.3,0.1-0.6,0-0.7-0.2C41,51,41,50.5,41,50.1c0.1-0.4,0.3-0.8,0.6-1.2l0,0
	l2.3-2.3l0,0l0,0c0.4-0.4,0.9-0.6,1.5-0.6c0.5,0,1.1,0.2,1.5,0.6l1.5,1.5l0,0l0,0c0.4,0.4,0.6,0.9,0.6,1.5c0,0.5-0.2,1.1-0.6,1.5
	l0,0l-2.3,2.3l0,0l0,0c-0.3,0.3-0.7,0.5-1.2,0.6c-0.4,0.1-0.9,0-1.3-0.2c-0.3-0.1-0.4-0.5-0.2-0.7c0.1-0.3,0.5-0.4,0.7-0.2
	c0.2,0.1,0.4,0.1,0.6,0.1c0.2,0,0.4-0.1,0.6-0.3l2.3-2.3l0,0l0,0c0.2-0.2,0.3-0.5,0.3-0.7c0-0.3-0.1-0.5-0.3-0.7l0,0l0,0l-1.5-1.5
	l0,0c-0.2-0.2-0.5-0.3-0.7-0.3c-0.3,0-0.5,0.1-0.7,0.3l0,0l0,0l0,0l-2.3,2.3l0,0c-0.2,0.2-0.3,0.4-0.3,0.6
	C42.1,50.5,42.1,50.7,42.2,50.9L42.2,50.9z M44,50.3L44,50.3L44,50.3c0.2-0.2,0.5-0.2,0.8,0c0.2,0.2,0.2,0.6,0,0.8l-4.5,4.5
	c-0.2,0.2-0.5,0.2-0.7,0s-0.2-0.5,0-0.7L44,50.3L44,50.3z M44,46.6L44,46.6c0.2-0.2,0.5-0.2,0.7,0H44L44,46.6z M48.4,48.1L48.4,48.1
	c0.2,0.2,0.2,0.5,0,0.7V48.1L48.4,48.1z M41.9,55L41.9,55L41.9,55c-0.1-0.3,0-0.6,0.2-0.7c0.3-0.1,0.6,0,0.7,0.2
	c0.2,0.4,0.3,0.9,0.2,1.3c-0.1,0.4-0.3,0.8-0.6,1.2l0,0l-2.3,2.3l0,0c-0.4,0.4-0.9,0.6-1.5,0.6c-0.5,0-1.1-0.2-1.5-0.6l0,0l-1.5-1.5
	l0,0l0,0c-0.4-0.4-0.6-0.9-0.6-1.5c0-0.5,0.2-1.1,0.6-1.5l0,0l2.3-2.3l0,0c0.3-0.3,0.7-0.5,1.2-0.6c0.4-0.1,0.9,0,1.3,0.2
	c0.3,0.1,0.4,0.5,0.2,0.7c-0.1,0.3-0.5,0.4-0.7,0.2c-0.2-0.1-0.4-0.1-0.6-0.1c-0.2,0-0.4,0.1-0.6,0.3l0,0l-2.3,2.3l0,0l0,0l0,0
	c-0.2,0.2-0.3,0.5-0.3,0.7c0,0.3,0.1,0.5,0.3,0.7l0,0l0,0l1.5,1.5l0,0l0,0c0.2,0.2,0.5,0.3,0.7,0.3c0.3,0,0.5-0.1,0.7-0.3l0,0
	l2.3-2.3l0,0c0.2-0.2,0.3-0.4,0.3-0.6C42.1,55.4,42.1,55.2,41.9,55L41.9,55z M40.2,59.3L40.2,59.3c-0.2,0.2-0.5,0.2-0.7,0H40.2
	L40.2,59.3z M35.7,57.8L35.7,57.8c-0.2-0.2-0.2-0.5,0-0.7V57.8L35.7,57.8z"/>
<path class="st7" d="M109.6,46.8v12.1l4-3.6l4,3.6V46.8H109.6z M109.6,45.9h7.9c0.4,0,0.8,0.4,0.8,0.9l0,0v12.1
	c0,0.5-0.4,0.9-0.8,0.9c-0.2,0-0.3-0.1-0.5-0.2l-3.5-3.2l-3.5,3.2c-0.3,0.3-0.8,0.2-1.1-0.2c-0.1-0.2-0.2-0.4-0.2-0.6v-12
	C108.8,46.3,109.2,45.9,109.6,45.9z"/>
<path class="st9" d="M81.5,57.4c0,0.2-0.2,0.4-0.4,0.4c0,0,0,0-0.1,0h-7.4c-0.2,0-0.4-0.2-0.4-0.4c0,0,0,0,0-0.1v-7.4
	c0-0.2,0.2-0.4,0.4-0.4c0,0,0,0,0.1,0h7.4c0.2,0,0.4,0.2,0.4,0.4c0,0,0,0,0,0.1V57.4z M81,48.6h-7.4c-0.7,0-1.4,0.6-1.4,1.4v7.4
	c0,0.7,0.6,1.4,1.4,1.4H81c0.7,0,1.4-0.6,1.4-1.4V50C82.4,49.2,81.8,48.6,81,48.6z M79.2,53.2h-1.4v-1.4c0-0.2-0.2-0.4-0.4-0.4
	S77,51.6,77,51.8v1.4h-1.4c-0.2,0-0.4,0.2-0.4,0.4s0.2,0.4,0.4,0.4H77v1.4c0,0.2,0.2,0.4,0.4,0.4c0.2,0,0.4-0.2,0.4-0.4V54h1.4
	c0.2,0,0.4-0.2,0.4-0.4C79.6,53.4,79.4,53.2,79.2,53.2z M80.1,45.9c0.2,0,0.4,0.2,0.4,0.4c0,0,0,0,0,0.1c0,0.2-0.2,0.4-0.4,0.4
	c0,0,0,0-0.1,0h-9.2c-0.2,0-0.4,0.2-0.4,0.4c0,0,0,0,0,0.1v7.4c0,0.2-0.2,0.4-0.4,0.4c0,0,0,0-0.1,0c-0.2,0-0.4-0.2-0.4-0.4
	c0,0,0,0,0-0.1v-7.4c0-0.7,0.6-1.4,1.4-1.4C70.9,45.9,80.1,45.9,80.1,45.9z M69.9,56.9c-0.2,0-0.4-0.2-0.4-0.4
	c0-0.2,0.2-0.4,0.4-0.4c0.2,0,0.4,0.2,0.4,0.4C70.4,56.7,70.2,56.9,69.9,56.9z"/>
<path class="st0" d="M113.9,71.7c0.1,0.3,0,0.6-0.2,0.7c-0.3,0.1-0.6,0-0.7-0.2c-0.3-0.4-0.3-0.9-0.3-1.3c0.1-0.4,0.3-0.8,0.6-1.2
	l0,0l2.3-2.3l0,0l0,0c0.4-0.4,0.9-0.6,1.5-0.6c0.5,0,1.1,0.2,1.5,0.6l1.5,1.5l0,0l0,0c0.4,0.4,0.6,0.9,0.6,1.5
	c0,0.5-0.2,1.1-0.6,1.5l0,0l-2.3,2.3l0,0l0,0c-0.3,0.3-0.7,0.5-1.2,0.6c-0.4,0.1-0.9,0-1.3-0.2c-0.3-0.1-0.4-0.5-0.2-0.7
	c0.1-0.3,0.5-0.4,0.7-0.2c0.2,0.1,0.4,0.1,0.6,0.1c0.2,0,0.4-0.1,0.6-0.3l2.3-2.3l0,0l0,0c0.2-0.2,0.3-0.5,0.3-0.7
	c0-0.3-0.1-0.5-0.3-0.7l0,0l0,0l-1.5-1.5l0,0c-0.2-0.2-0.5-0.3-0.7-0.3c-0.3,0-0.5,0.1-0.7,0.3l0,0l0,0l0,0l-2.3,2.3l0,0
	c-0.2,0.2-0.3,0.4-0.3,0.6C113.8,71.2,113.8,71.5,113.9,71.7L113.9,71.7z M115.7,71.1L115.7,71.1L115.7,71.1c0.2-0.2,0.5-0.2,0.8,0
	c0.2,0.2,0.2,0.6,0,0.8l-4.5,4.5c-0.2,0.2-0.5,0.2-0.7,0c-0.2-0.2-0.2-0.5,0-0.7L115.7,71.1L115.7,71.1z M115.7,67.3L115.7,67.3
	c0.2-0.2,0.5-0.2,0.7,0H115.7L115.7,67.3z M120.1,68.8L120.1,68.8c0.2,0.2,0.2,0.5,0,0.7V68.8L120.1,68.8z M113.6,75.8L113.6,75.8
	L113.6,75.8c-0.1-0.3,0-0.6,0.2-0.7c0.3-0.1,0.6,0,0.7,0.2c0.2,0.4,0.3,0.9,0.2,1.3s-0.3,0.8-0.6,1.2l0,0l-2.3,2.3l0,0
	c-0.4,0.4-0.9,0.6-1.5,0.6c-0.5,0-1.1-0.2-1.5-0.6l0,0l-1.5-1.5l0,0l0,0c-0.4-0.4-0.6-0.9-0.6-1.5c0-0.5,0.2-1.1,0.6-1.5l0,0
	l2.3-2.3l0,0c0.3-0.3,0.7-0.5,1.2-0.6c0.4-0.1,0.9,0,1.3,0.2c0.3,0.1,0.4,0.5,0.2,0.7c-0.1,0.3-0.5,0.4-0.7,0.2
	c-0.2-0.1-0.4-0.1-0.6-0.1c-0.2,0-0.4,0.1-0.6,0.3l0,0l-2.3,2.3l0,0l0,0l0,0c-0.2,0.2-0.3,0.5-0.3,0.7c0,0.3,0.1,0.5,0.3,0.7l0,0
	l0,0l1.5,1.5l0,0l0,0c0.2,0.2,0.5,0.3,0.7,0.3c0.3,0,0.5-0.1,0.7-0.3l0,0l2.3-2.3l0,0c0.2-0.2,0.3-0.4,0.3-0.6
	C113.8,76.2,113.8,76,113.6,75.8L113.6,75.8z M111.9,80.1L111.9,80.1c-0.2,0.2-0.5,0.2-0.7,0H111.9L111.9,80.1z M107.4,78.6
	L107.4,78.6c-0.2-0.2-0.2-0.5,0-0.7V78.6L107.4,78.6z"/>
<path class="st10" d="M145.5,78.6c0,0.2-0.2,0.4-0.4,0.4c0,0,0,0-0.1,0h-7.4c-0.2,0-0.4-0.2-0.4-0.4c0,0,0,0,0-0.1v-7.4
	c0-0.2,0.2-0.4,0.4-0.4c0,0,0,0,0.1,0h7.4c0.2,0,0.4,0.2,0.4,0.4c0,0,0,0,0,0.1V78.6z M145,69.9h-7.4c-0.7,0-1.4,0.6-1.4,1.4v7.4
	c0,0.7,0.6,1.4,1.4,1.4h7.4c0.7,0,1.4-0.6,1.4-1.4v-7.4C146.4,70.5,145.8,69.9,145,69.9z M143.2,74.4h-1.4v-1.4
	c0-0.2-0.2-0.4-0.4-0.4c-0.2,0-0.4,0.2-0.4,0.4v1.4h-1.4c-0.2,0-0.4,0.2-0.4,0.4s0.2,0.4,0.4,0.4h1.4v1.4c0,0.2,0.2,0.4,0.4,0.4
	c0.2,0,0.4-0.2,0.4-0.4v-1.4h1.4c0.2,0,0.4-0.2,0.4-0.4S143.4,74.4,143.2,74.4z M144.1,67.2c0.2,0,0.4,0.2,0.4,0.4c0,0,0,0,0,0.1
	c0,0.2-0.2,0.4-0.4,0.4c0,0,0,0-0.1,0h-9.2c-0.2,0-0.4,0.2-0.4,0.4c0,0,0,0,0,0.1V76c0,0.2-0.2,0.4-0.4,0.4c0,0,0,0-0.1,0
	c-0.2,0-0.4-0.2-0.4-0.4c0,0,0,0,0-0.1v-7.4c0-0.7,0.6-1.4,1.4-1.4C134.9,67.2,144.1,67.2,144.1,67.2z M133.9,78.2
	c-0.2,0-0.4-0.2-0.4-0.4s0.2-0.4,0.4-0.4c0.2,0,0.4,0.2,0.4,0.4C134.4,78,134.2,78.2,133.9,78.2z"/>
<rect x="31.3" y="18.5" class="st0" width="0" height="0.3"/>
</svg>
