<?xml version="1.0" encoding="UTF-8"?>
<svg width="80px" height="80px" viewBox="0 0 80 80" version="1.1" xmlns="http://www.w3.org/2000/svg" xmlns:xlink="http://www.w3.org/1999/xlink">
    <!-- Generator: Sketch 49.3 (51167) - http://www.bohemiancoding.com/sketch -->
    <title>123 copy 9</title>
    <desc>Created with Sketch.</desc>
    <defs></defs>
    <g id="Page-1" stroke="none" stroke-width="1" fill="none" fill-rule="evenodd">
        <g id="切图" transform="translate(-273.000000, -240.000000)" stroke="#EAEAEA">
            <g id="123-copy-8" transform="translate(276.000000, 250.000000)">
                <g id="123-copy-7" opacity="0.412890625">
                    <path d="M13.5769231,58.1428571 L59.2023045,58.1428571" id="Path-10" stroke-width="2" stroke-linecap="round"></path>
                    <path d="M6.57692308,58.1428571 L9.50999679,58.1428571" id="Path-10-Copy" stroke-width="2" stroke-linecap="round"></path>
                    <ellipse id="Oval-6" stroke-width="2" cx="2.30769231" cy="24" rx="2.30769231" ry="2.28571429"></ellipse>
                    <ellipse id="Oval-6-Copy-4" stroke-width="2" cx="68.0769231" cy="18.2857143" rx="2.30769231" ry="2.28571429"></ellipse>
                    <path d="M11.9230769,1.9010989 L13.4432234,1.9010989 C13.6536176,1.9010989 13.8241758,2.07329707 13.8241758,2.28571429 C13.8241758,2.4981315 13.6536176,2.67032967 13.4432234,2.67032967 L11.9230769,2.67032967 L11.9230769,4.19047619 C11.9230769,4.40087038 11.7508787,4.57142857 11.5384615,4.57142857 C11.3260443,4.57142857 11.1538462,4.40087038 11.1538462,4.19047619 L11.1538462,2.67032967 L9.63369963,2.67032967 C9.42330544,2.67032967 9.25274725,2.4981315 9.25274725,2.28571429 C9.25274725,2.07329707 9.42330544,1.9010989 9.63369963,1.9010989 L11.1538462,1.9010989 L11.1538462,0.380952381 C11.1538462,0.170558191 11.3260443,0 11.5384615,0 C11.7508787,0 11.9230769,0.170558191 11.9230769,0.380952381 L11.9230769,1.9010989 Z" id="Combined-Shape" stroke-width="0.2" fill="#EAEAEA" fill-rule="nonzero"></path>
                    <path d="M3.17307692,42.5686813 L4.31318681,42.5686813 C4.47098246,42.5686813 4.5989011,42.6978299 4.5989011,42.8571429 C4.5989011,43.0164558 4.47098246,43.1456044 4.31318681,43.1456044 L3.17307692,43.1456044 L3.17307692,44.2857143 C3.17307692,44.4435099 3.04392829,44.5714286 2.88461538,44.5714286 C2.72530248,44.5714286 2.59615385,44.4435099 2.59615385,44.2857143 L2.59615385,43.1456044 L1.45604396,43.1456044 C1.29824831,43.1456044 1.17032967,43.0164558 1.17032967,42.8571429 C1.17032967,42.6978299 1.29824831,42.5686813 1.45604396,42.5686813 L2.59615385,42.5686813 L2.59615385,41.4285714 C2.59615385,41.2707758 2.72530248,41.1428571 2.88461538,41.1428571 C3.04392829,41.1428571 3.17307692,41.2707758 3.17307692,41.4285714 L3.17307692,42.5686813 Z" id="Combined-Shape-Copy" stroke-width="0.2" fill="#EAEAEA" fill-rule="nonzero"></path>
                    <path d="M73.5576923,34.5686813 L74.6978022,34.5686813 C74.8555978,34.5686813 74.9835165,34.6978299 74.9835165,34.8571429 C74.9835165,35.0164558 74.8555978,35.1456044 74.6978022,35.1456044 L73.5576923,35.1456044 L73.5576923,36.2857143 C73.5576923,36.4435099 73.4285437,36.5714286 73.2692308,36.5714286 C73.1099179,36.5714286 72.9807692,36.4435099 72.9807692,36.2857143 L72.9807692,35.1456044 L71.8406593,35.1456044 C71.6828637,35.1456044 71.5549451,35.0164558 71.5549451,34.8571429 C71.5549451,34.6978299 71.6828637,34.5686813 71.8406593,34.5686813 L72.9807692,34.5686813 L72.9807692,33.4285714 C72.9807692,33.2707758 73.1099179,33.1428571 73.2692308,33.1428571 C73.4285437,33.1428571 73.5576923,33.2707758 73.5576923,33.4285714 L73.5576923,34.5686813 Z" id="Combined-Shape-Copy-2" stroke-width="0.2" fill="#EAEAEA" fill-rule="nonzero"></path>
                </g>
                <rect id="Rectangle-60" stroke-width="2" x="15" y="15" width="38" height="38" rx="8"></rect>
                <g id="播放" transform="translate(28.000000, 25.000000)" fill="#ECECEC" fill-rule="nonzero" stroke-width="0.6">
                    <path d="M2.64105945,16.4758997 L12.0354814,9.8172641 C12.6716558,9.36635165 12.6728871,8.6329927 12.0354814,8.18120944 L2.64105945,1.52257382 C2.00488511,1.07166137 1.48693534,1.2811744 1.48693534,1.99248336 L1.48693534,16.0059862 C1.48693534,16.722878 2.00365375,16.927679 2.64105945,16.4758957 L2.64105945,16.4758997 Z M3.58307356,17.4717669 C1.97719808,18.6099915 0,17.8115747 0,16.0059902 L0,1.99248738 C0,0.192894021 1.97808792,-0.610874432 3.58307356,0.526710697 L12.9774955,7.18534632 C14.3412739,8.15197572 14.3403957,9.84713133 12.9774955,10.8131353 L3.58307356,17.4717709 L3.58307356,17.4717669 Z" id="Shape"></path>
                </g>
            </g>
        </g>
    </g>
</svg>