<?xml version="1.0" encoding="UTF-8"?>
<svg width="18px" height="19px" viewBox="0 0 18 19" version="1.1" xmlns="http://www.w3.org/2000/svg" xmlns:xlink="http://www.w3.org/1999/xlink">
    <!-- Generator: Sketch 50.2 (55047) - http://www.bohemiancoding.com/sketch -->
    <title>Slice</title>
    <desc>Created with Sketch.</desc>
    <defs></defs>
    <g id="Page-1" stroke="none" stroke-width="1" fill="none" fill-rule="evenodd">
        <g id="word_02-copy-3" transform="translate(2.000000, 1.000000)" fill="#FFFFFF">
            <path d="M12.7423168,16.9850586 L1.25768322,16.9850586 C0.5643026,16.9850586 0,16.4189453 0,15.7233398 L0,1.27666016 C0,0.581054687 0.5643026,0.0149414062 1.25768322,0.0149414062 L10.2137116,0.0149414062 L14,3.98603516 L14,15.7233398 C14,16.4189453 13.4356974,16.9850586 12.7423168,16.9850586 Z M1.42384741,1.01494141 C1.18892423,1.01494141 1,1.2064379 1,1.44250686 L1,15.5890268 C1,15.8234449 1.19056705,16.0149414 1.42384741,16.0149414 L12.5761526,16.0149414 C12.8110758,16.0149414 13,15.8234449 13,15.5890268 L13,4.24781188 L9.71436119,1.01494141 L1.42384741,1.01494141 Z" id="Shape" fill-rule="nonzero"></path>
            <path d="M13.6282227,4.57041016 L10.9138672,4.57041016 C10.2182617,4.57041016 9.65214844,4.00429688 9.65214844,3.30869141 L9.65214844,0.431640625 C9.65214844,0.262304688 9.75507812,0.107910156 9.91279297,0.0448242188 C10.0705078,-0.0182617187 10.2514648,0.019921875 10.3693359,0.142773438 L13.9287109,3.86484375 C14.0432617,3.98603516 14.0764648,4.16367188 14.0100586,4.31640625 C13.9453125,4.47080078 13.7958984,4.57041016 13.6282227,4.57041016 Z M10.4838867,1.46923828 L10.4838867,3.30869141 C10.4838867,3.54443359 10.6764648,3.73701172 10.912207,3.73701172 L12.6520508,3.73701172 L10.4838867,1.46923828 Z" id="Shape" fill-rule="nonzero"></path>
            <polygon id="Rectangle-49" points="5 5 10.999054 4.99258423 10.999054 5.5 10.999054 5.99258423 5 6"></polygon>
            <rect id="Rectangle-49-Copy-3" x="3" y="5" width="1" height="1"></rect>
            <rect id="Rectangle-49-Copy-4" x="3" y="8" width="1" height="1"></rect>
            <rect id="Rectangle-49-Copy-5" x="3" y="11" width="1" height="1"></rect>
            <rect id="Rectangle-49-Copy" x="5" y="8" width="5" height="1"></rect>
            <rect id="Rectangle-49-Copy-2" x="5" y="11" width="3" height="1"></rect>
        </g>
    </g>
</svg>